<svg xmlns="http://www.w3.org/2000/svg" viewBox="0 0 453.11 106.73"><defs><style>.cls-1{fill:#2e2d2c;}.cls-2{fill:#f5c500;}.cls-3{fill:#f9b122;}</style></defs><title>Asset 4</title><g id="Layer_2" data-name="Layer 2"><g id="Layer_1-2" data-name="Layer 1"><path class="cls-1" d="M157.76,85.34a47.12,47.12,0,0,1,.35-6.75H158q-3.56,7.75-13.64,7.76-6.19,0-9.7-3.86a13.28,13.28,0,0,1-3.33-9.39q0-15.7,25.13-15.7V56q0-6-7-6a35.55,35.55,0,0,0-13.6,3l-2.06-10.44a50.9,50.9,0,0,1,17.46-3q10.53,0,15,4.13,3.94,3.67,3.95,11.67V74.73c0,4,.11,7.51.35,10.61Zm-1.28-19.21q-12,0-12,5.57c0,2.81,1.47,4.21,4.39,4.21a7,7,0,0,0,5.53-2.63,8.92,8.92,0,0,0,2.1-5.92Z"/><path class="cls-1" d="M180.41,85.34V19.76h13.65V85.34Z"/><path class="cls-1" d="M256.59,85.34V57.4q0-6.19-4-6.19c-2.17,0-4.14,1.2-5.93,3.6a14.9,14.9,0,0,0-2.8,9.08V85.34H230.36v-28q0-6.11-4-6.1c-2.25,0-4.27,1.22-6,3.64a15,15,0,0,0-2.76,9V85.34H203.86V40.68h12.86a49.87,49.87,0,0,1-.53,7.11h.09q4.56-8.07,14.25-8.07t12.24,8.07q4.3-8.07,14.09-8.07,13.5,0,13.51,15.09V85.34Z"/><path class="cls-1" d="M317.64,66.57H291.1q.16,9.17,11,9.16a35,35,0,0,0,13.12-2.63l1.36,10.27a47.6,47.6,0,0,1-16.72,3q-22.64,0-22.63-22.86,0-10.35,5.74-16.93,6-6.84,16.1-6.84,9.57,0,14.52,5.57,4.53,5,4.52,13.73A47.92,47.92,0,0,1,317.64,66.57Zm-12.94-9q.26-7.89-6.32-7.89t-7.28,7.89Z"/><path class="cls-1" d="M350.6,53.19q-11.4-2.64-11.4,13.73V85.34H325.56V40.68h12.76a47.23,47.23,0,0,1-.66,7.9h.22q4.17-9.44,13.38-8.95Z"/><path class="cls-1" d="M379.58,82.23q-5.49,4.13-14.65,4.12A36.18,36.18,0,0,1,355,85.08l.75-11.14a23.12,23.12,0,0,0,9.34,1.79c3.66,0,5.49-1.16,5.49-3.5,0-1.41-.87-2.56-2.59-3.47q1.1.57-5.66-2.28-8.2-3.51-8.2-11.93A13,13,0,0,1,358.92,44q5.22-4.4,15-4.39a46,46,0,0,1,7.81.79l-.48,10.7a22.34,22.34,0,0,0-7.72-1.18c-3.4,0-5.09,1.14-5.09,3.42,0,1.26.86,2.34,2.59,3.25a24.41,24.41,0,0,0,2.67,1.18c1.49.59,2.52,1,3.07,1.27q8.39,3.82,8.38,12A13.2,13.2,0,0,1,379.58,82.23Z"/><path class="cls-1" d="M416.8,85.34a48.66,48.66,0,0,1,.35-6.75h-.08q-3.56,7.75-13.65,7.76-6.18,0-9.69-3.86a13.28,13.28,0,0,1-3.33-9.39q0-15.7,25.13-15.7V56q0-6-7-6A35.51,35.51,0,0,0,395,53L392.9,42.57a50.9,50.9,0,0,1,17.46-3q10.51,0,15,4.13,3.94,3.67,3.95,11.67V74.73c0,4,.11,7.51.35,10.61Zm-1.27-19.21q-12,0-12,5.57,0,4.22,4.39,4.21a7,7,0,0,0,5.53-2.63,8.92,8.92,0,0,0,2.1-5.92Z"/><path class="cls-1" d="M439.46,85.34V19.76h13.65V85.34Z"/><polygon class="cls-2" points="0 3.37 81.89 85.25 0 85.25 0 3.37"/><polygon class="cls-3" points="85.25 0 44.31 40.94 85.25 81.89 85.25 0"/><polygon class="cls-3" points="32.44 85.25 0 3.37 49.4 85.25 32.44 85.25"/><polygon class="cls-3" points="49.45 89.63 40.94 106.73 32.44 89.71 49.45 89.63"/></g></g></svg>