<?xml version="1.0" encoding="utf-8"?>
<!-- Generator: Adobe Illustrator 18.0.0, SVG Export Plug-In . SVG Version: 6.00 Build 0)  -->
<!DOCTYPE svg PUBLIC "-//W3C//DTD SVG 1.1//EN" "http://www.w3.org/Graphics/SVG/1.1/DTD/svg11.dtd">
<svg version="1.1" id="Layer_1" xmlns="http://www.w3.org/2000/svg" xmlns:xlink="http://www.w3.org/1999/xlink" x="0px" y="0px"
	 viewBox="0 1117.3 2048 497.4" enable-background="new 0 1117.3 2048 497.4" xml:space="preserve">
<title>Asset 5</title>
<g id="Layer_2">
	<g id="Layer_1-2">
		<path fill="#FFFFFF" d="M161.5,1218.6h65.3v255.4c0,87.7-39,131.5-117,131.5C36.6,1605.6,0,1565.8,0,1486.4
			c0.1-24,3.3-47.9,9.5-71.1l67.9-11.9c-7.7,24.9-11.7,50.7-11.9,76.8c0,49.4,16.4,74.1,49.1,74.2c31.3,0,46.9-25.1,46.9-75.4
			V1218.6z"/>
		<path fill="#FFFFFF" d="M280.1,1218.6h65.4v240.5h38.8v51.3H280.1V1218.6z"/>
		<path fill="#FFFFFF" d="M378.3,1459.1h22.5c12.7,0,21.4-3.2,26.1-9.5c4.7-6.3,7.1-19.2,7.3-38.6v-70.3H500v77
			c0,17.1,1.8,28.9,5.3,35.3c3.5,6.4,9.9,9.5,19.2,9.2c18.2,0,27.3-14.8,27.3-44.3v-93.8h62.5v102.2c0,13.2,2.7,22,8.1,26.3
			c5.4,4.3,16.5,6.5,33.4,6.4h9.2c1.7-14.8,2.6-29.8,2.6-44.7c-0.2-36.4-3.9-72.6-11.1-108.3l63.8-8.7
			c8.3,37.1,12.4,75.1,12.2,113.1c0,33.3-1.8,66.7-5.4,99.8h-82.5c-36.9,0-60.6-8.6-71.1-25.7c-10,19.1-30.6,28.7-62,28.7
			c-30.4,0-49.3-10-56.6-30.1c-8.4,17.9-26.8,26.9-55.3,26.9h-21.2V1459.1z"/>
		<path fill="#FFFFFF" d="M711.1,1612.3l4.6-51.7c9.2,2.3,18.6,3.3,28.1,3.2c12.7,0,22-3.4,27.9-10.1c6.4-7.7,9.7-20.7,9.7-39.2
			v-198.6h65.5v143.3h37.5v51.3h-37.6v1.6c0,68.5-35.5,102.7-106.5,102.7C730.6,1614.7,720.8,1613.9,711.1,1612.3z"/>
		<path fill="#FFFFFF" d="M1034.5,1510.4c-42.8,0-73-9.2-90.6-27.6c-9.7,18.4-32.3,27.6-67.9,27.6h-6.3v-51.3
			c31.3,0,46.9-16.3,46.9-48.9c-0.7-26,9.3-51.1,27.6-69.5c20.1-20.3,47.7-30.5,82.9-30.5c32.8,0,57.5,9,74.2,26.9
			c15,16.6,22.6,39.8,22.6,69.5v52.6h30.7v51.3H1034.5z M1059.7,1413.7c0-34.8-12.4-52.2-37.1-52.2c-11.8-0.5-23.2,4.6-30.7,13.8
			c-7.4,9.6-11.2,21.6-10.7,33.7c0,33.4,17.8,50.1,53.3,50.1h25.2L1059.7,1413.7z"/>
		<path fill="#FFFFFF" d="M1147.6,1459.1h47.1v-240.5h65.9v291.8h-112.9V1459.1z"/>
		<path fill="#FFFFFF" d="M1316.6,1218.6h65.4v291.8h-65.4V1218.6z"/>
		<polygon fill="#FFFFFF" points="1655.3,1132.8 2032.5,1510 1655.3,1510 		"/>
		<polygon fill="#EAEAEA" points="2048,1117.3 1859.4,1305.9 2048,1494.5 		"/>
		<polygon fill="#EAEAEA" points="1804.7,1510 1655.3,1132.8 1883.1,1510.4 		"/>
		<polygon fill="#EAEAEA" points="1883.1,1530.2 1843.9,1608.9 1804.7,1530.5 		"/>
	</g>
</g>
</svg>
