<svg xmlns="http://www.w3.org/2000/svg" viewBox="0 0 444.6 107.98"><defs><style>.cls-1{fill:#2e2d2c;}.cls-2{fill:#f5c500;}.cls-3{fill:#f9b122;}</style></defs><title>Asset 5</title><g id="Layer_2" data-name="Layer 2"><g id="Layer_1-2" data-name="Layer 1"><path class="cls-1" d="M35.05,22H49.22V77.45q0,28.55-25.4,28.55Q0,106,0,80.12A60.79,60.79,0,0,1,2.06,64.68L16.8,62.09a57.91,57.91,0,0,0-2.59,16.67q0,16.09,10.66,16.1,10.18,0,10.18-16.36Z"/><path class="cls-1" d="M60.8,22H75V74.2h8.42V85.34H60.8Z"/><path class="cls-1" d="M82.12,74.2H87q4.13,0,5.66-2.06t1.58-8.38V48.49h14.3V65.21q0,5.57,1.14,7.67t4.17,2q5.93,0,5.92-9.61V44.9h13.56V67.09q0,4.3,1.75,5.71t7.24,1.4h2a90.56,90.56,0,0,0,.57-9.7A121.52,121.52,0,0,0,142.49,41l13.86-1.89A111.22,111.22,0,0,1,159,63.67a195.92,195.92,0,0,1-1.18,21.67H139.9q-12,0-15.44-5.57Q121.21,86,111,86q-9.91,0-12.28-6.53-2.72,5.83-12,5.83H82.12Z"/><path class="cls-1" d="M154.38,107.45l1-11.23a24.4,24.4,0,0,0,6.1.7q4.13,0,6.06-2.19c1.4-1.67,2.1-4.5,2.1-8.51V43.1h14.22V74.2H192V85.34h-8.16v.35q0,22.29-23.12,22.29A36.53,36.53,0,0,1,154.38,107.45Z"/><path class="cls-1" d="M224.57,85.34q-13.95,0-19.66-6-3.15,6-14.74,6h-1.36V74.2Q199,74.2,199,63.58a20.58,20.58,0,0,1,6-15.09q6.54-6.62,18-6.62,10.69,0,16.1,5.83,4.9,5.4,4.91,15.09V74.2h6.67V85.34Zm5.48-21Q230.05,53,222,53a8.18,8.18,0,0,0-6.67,3A11.25,11.25,0,0,0,213,63.32q0,10.87,11.58,10.88h5.48Z"/><path class="cls-1" d="M249.13,74.2h10.22V22h14.3V85.34H249.13Z"/><path class="cls-1" d="M285.81,22H300V85.34H285.81Z"/><polygon class="cls-2" points="359.34 3.37 441.23 85.25 359.34 85.25 359.34 3.37"/><polygon class="cls-3" points="444.6 0 403.66 40.94 444.6 81.89 444.6 0"/><polygon class="cls-3" points="391.78 85.25 359.34 3.37 408.8 85.34 391.78 85.25"/><polygon class="cls-3" points="408.8 89.63 400.29 106.73 391.78 89.71 408.8 89.63"/></g></g></svg>