<?xml version="1.0" encoding="utf-8"?>
<!-- Generator: Adobe Illustrator 18.0.0, SVG Export Plug-In . SVG Version: 6.00 Build 0)  -->
<!DOCTYPE svg PUBLIC "-//W3C//DTD SVG 1.1//EN" "http://www.w3.org/Graphics/SVG/1.1/DTD/svg11.dtd">
<svg version="1.1" id="Layer_1" xmlns="http://www.w3.org/2000/svg" xmlns:xlink="http://www.w3.org/1999/xlink" x="0px" y="0px"
	 viewBox="0 1124.8 2048 482.4" enable-background="new 0 1124.8 2048 482.4" xml:space="preserve">
<title>Asset 4</title>
<g id="Layer_2">
	<g id="Layer_1-2">
		<path fill="#FFFFFF" d="M713.1,1510.5c-0.2-10.2,0.3-20.4,1.6-30.5h-0.5c-10.7,23.4-31.3,35-61.7,35.1c-18.7,0-33.3-5.8-43.8-17.4
			c-10.3-11.7-15.7-26.9-15.1-42.4c0-47.3,37.9-71,113.6-71v-6.3c0-18.1-10.5-27.1-31.6-27.1c-21.2,0.4-42.1,5-61.5,13.6l-9.3-47.2
			c25.3-9.1,52-13.7,78.9-13.6c31.7,0,54.3,6.2,67.8,18.7c11.9,11.1,17.8,28.6,17.9,52.7v87.6c0,18.1,0.5,33.9,1.6,48H713.1z
			 M707.3,1423.7c-36.2,0-54.2,8.4-54.2,25.2c0,12.7,6.6,19,19.8,19c9.7,0.1,18.9-4.3,25-11.9c6.3-7.5,9.7-17,9.5-26.8L707.3,1423.7
			z"/>
		<path fill="#FFFFFF" d="M815.4,1510.5v-296.4h61.7v296.4H815.4z"/>
		<path fill="#FFFFFF" d="M1159.8,1510.5v-126.3c0-18.7-6-28-18.1-28c-9.8,0-18.7,5.4-26.8,16.3c-8.6,11.9-13,26.3-12.7,41v97h-61
			V1384c0-18.4-6-27.6-18.1-27.6c-10.2,0-19.3,5.5-27.1,16.5c-8.4,11.9-12.8,26.1-12.5,40.7v97h-62.1v-201.9h58.1
			c0,10.8-0.8,21.5-2.4,32.1h0.4c13.7-24.3,35.2-36.5,64.4-36.5c29.2,0,47.6,12.2,55.3,36.5c13-24.3,34.2-36.5,63.7-36.5
			c40.7,0,61,22.7,61.1,68.2v138H1159.8z"/>
		<path fill="#FFFFFF" d="M1435.7,1425.7h-120c0.5,27.6,17.1,41.4,49.7,41.4c20.3-0.1,40.5-4.1,59.3-11.9l6.1,46.4
			c-24.2,9-49.8,13.6-75.6,13.6c-68.2,0-102.3-34.4-102.3-103.3c0-31.2,8.6-56.7,25.9-76.5c18.1-20.6,42.3-30.9,72.8-30.9
			c28.8,0,50.7,8.4,65.6,25.2c13.6,15.1,20.5,35.8,20.4,62.1C1438,1403,1437.3,1414.4,1435.7,1425.7z M1377.2,1385
			c0.8-23.8-8.7-35.7-28.6-35.7s-30.8,11.9-32.9,35.7H1377.2z"/>
		<path fill="#FFFFFF" d="M1584.7,1365.2c-34.4-8-51.5,12.7-51.5,62.1v83.3h-61.7v-201.9h57.7c0,12-1,23.9-3,35.7h1
			c12.6-28.4,32.7-41.9,60.5-40.5L1584.7,1365.2z"/>
		<path fill="#FFFFFF" d="M1715.7,1496.5c-16.5,12.4-38.6,18.7-66.2,18.6c-15.2,0.2-30.3-1.8-44.9-5.7l3.4-50.4
			c13.4,5.6,27.7,8.3,42.2,8.1c16.5,0,24.8-5.2,24.8-15.8c0-6.4-3.9-11.6-11.7-15.7c3.3,1.7-5.2-1.7-25.6-10.3
			c-24.7-10.6-37.1-28.6-37.1-53.9c-0.7-18.4,7.4-36.1,21.7-47.7c15.7-13.3,38.3-19.9,67.8-19.8c11.8,0.2,23.7,1.4,35.3,3.6
			l-2.2,48.4c-11.2-3.8-23-5.6-34.9-5.3c-15.4,0-23,5.2-23,15.5c0,5.7,3.9,10.6,11.7,14.7c3.9,2,7.9,3.8,12.1,5.3
			c6.7,2.7,11.4,4.5,13.9,5.7c25.3,11.5,37.9,29.6,37.9,54.2C1741.5,1465.9,1732,1484.9,1715.7,1496.5z"/>
		<path fill="#FFFFFF" d="M1883.9,1510.5c-0.2-10.2,0.3-20.4,1.6-30.5h-0.4c-10.7,23.4-31.3,35-61.7,35.1
			c-18.6,0-33.2-5.8-43.8-17.4c-10.3-11.7-15.7-26.9-15.1-42.4c0-47.3,37.9-71,113.6-71v-6.3c0-18.1-10.5-27.1-31.6-27.1
			c-21.1,0.5-41.9,5.1-61.2,13.6l-9.5-47.1c25.3-9.1,52-13.7,78.9-13.6c31.7,0,54.3,6.2,67.8,18.7c11.9,11.1,17.8,28.6,17.9,52.7
			v87.5c0,18.1,0.5,33.9,1.6,48H1883.9z M1878.1,1423.7c-36.2,0-54.2,8.4-54.2,25.2c0,12.7,6.6,19.1,19.8,19
			c9.7,0.1,18.9-4.3,25-11.9c6.3-7.5,9.7-17,9.5-26.8L1878.1,1423.7z"/>
		<path fill="#FFFFFF" d="M1986.3,1510.5v-296.4h61.7v296.4H1986.3z"/>
		<polygon fill="#FFFFFF" points="0,1140 370.1,1510.1 0,1510.1 		"/>
		<polygon fill="#EAEAEA" points="385.3,1124.8 200.3,1309.8 385.3,1494.9 		"/>
		<polygon fill="#EAEAEA" points="146.6,1510.1 0,1140 223.3,1510.1 		"/>
		<polygon fill="#EAEAEA" points="223.5,1529.9 185,1607.2 146.6,1530.3 		"/>
	</g>
</g>
</svg>
